<svg class="main-svg" xmlns="http://www.w3.org/2000/svg" xmlns:xlink="http://www.w3.org/1999/xlink" width="500" height="200" style="" viewBox="0 0 500 200"><rect x="0" y="0" width="500" height="200" style="fill: rgb(0, 0, 0); fill-opacity: 0;"/><defs id="defs-ccca0f"><g class="clips"><clipPath id="clipccca0fxyplot" class="plotclip"><rect width="303" height="200"/></clipPath><clipPath class="axesclip" id="clipccca0fx"><rect x="197" y="0" width="303" height="200"/></clipPath><clipPath class="axesclip" id="clipccca0fy"><rect x="0" y="0" width="500" height="200"/></clipPath><clipPath class="axesclip" id="clipccca0fxy"><rect x="197" y="0" width="303" height="200"/></clipPath></g><g class="gradients"/></defs><g class="bglayer"><rect class="bg" x="187" y="-10" width="323" height="220" style="fill: rgb(0, 0, 0); fill-opacity: 0; stroke-width: 0;"/></g><g class="layer-below"><g class="imagelayer"/><g class="shapelayer"/></g><g class="cartesianlayer"><g class="subplot xy"><g class="layer-subplot"><g class="shapelayer"/><g class="imagelayer"/></g><g class="gridlayer"><g class="x"/><g class="y"/></g><g class="zerolinelayer"/><path class="xlines-below"/><path class="ylines-below"/><g class="overlines-below"/><g class="xaxislayer-below"/><g class="yaxislayer-below"/><g class="overaxes-below"/><g class="plot" transform="translate(197,0)" clip-path="url('#clipccca0fxyplot')"><g class="scatterlayer mlayer"><g class="trace scatter tracecaa32c" style="stroke-miterlimit: 2; opacity: 1;"><g class="fills"/><g class="errorbars"/><g class="lines"/><g class="points"><path class="point" transform="translate(151.5,38.13)" d="M5,0A5,5 0 1,1 0,-5A5,5 0 0,1 5,0Z" style="opacity: 1; stroke-width: 0px; fill: rgb(107, 123, 140); fill-opacity: 1;"/><path class="point" transform="translate(151.5,100)" d="M5,0A5,5 0 1,1 0,-5A5,5 0 0,1 5,0Z" style="opacity: 1; stroke-width: 0px; fill: rgb(82, 171, 75); fill-opacity: 1;"/><path class="point" transform="translate(151.5,161.88)" d="M5,0A5,5 0 1,1 0,-5A5,5 0 0,1 5,0Z" style="opacity: 1; stroke-width: 0px; fill: rgb(217, 140, 17); fill-opacity: 1;"/></g><g class="text"/></g><g class="trace scatter trace56998d" style="stroke-miterlimit: 2; opacity: 1;"><g class="fills"/><g class="errorbars"/><g class="lines"/><g class="points"><path class="point" transform="translate(151.5,38.13)" d="M22.5,0A22.5,22.5 0 1,1 0,-22.5A22.5,22.5 0 0,1 22.5,0Z" style="opacity: 1; stroke-width: 0px; fill: rgb(107, 123, 140); fill-opacity: 1;"/><path class="point" transform="translate(259.73,100)" d="M22.5,0A22.5,22.5 0 1,1 0,-22.5A22.5,22.5 0 0,1 22.5,0Z" style="opacity: 1; stroke-width: 0px; fill: rgb(82, 171, 75); fill-opacity: 1;"/><path class="point" transform="translate(43.27,161.88)" d="M22.5,0A22.5,22.5 0 1,1 0,-22.5A22.5,22.5 0 0,1 22.5,0Z" style="opacity: 1; stroke-width: 0px; fill: rgb(217, 140, 17); fill-opacity: 1;"/></g><g class="text"/></g></g></g><g class="overplot"/><path class="xlines-above crisp" d="M0,0" style="fill: none;"/><path class="ylines-above crisp" d="M0,0" style="fill: none;"/><g class="overlines-above"/><g class="xaxislayer-above"/><g class="yaxislayer-above"><g class="ytick"><text text-anchor="end" x="186" y="7" transform="translate(0,161.88)" style="font-family: 'Open Sans', verdana, arial, sans-serif; font-size: 20px; fill: rgb(42, 63, 95); fill-opacity: 1; white-space: pre;">worse than expected</text></g><g class="ytick"><text text-anchor="end" x="186" y="7" transform="translate(0,100)" style="font-family: 'Open Sans', verdana, arial, sans-serif; font-size: 20px; fill: rgb(42, 63, 95); fill-opacity: 1; white-space: pre;">better than expected</text></g><g class="ytick"><text text-anchor="end" x="186" y="7" transform="translate(0,38.13)" style="font-family: 'Open Sans', verdana, arial, sans-serif; font-size: 20px; fill: rgb(42, 63, 95); fill-opacity: 1; white-space: pre;">as expected</text></g></g><g class="overaxes-above"/></g></g><g class="polarlayer"/><g class="ternarylayer"/><g class="geolayer"/><g class="funnelarealayer"/><g class="pielayer"/><g class="treemaplayer"/><g class="sunburstlayer"/><g class="glimages"/><defs id="topdefs-ccca0f"><g class="clips"/></defs><g class="layer-above"><g class="imagelayer"/><g class="shapelayer"><path data-index="0" fill-rule="evenodd" d="M348.5,100L470.25,100" clip-path="url('#clipccca0fxy')" style="opacity: 1; stroke: rgb(82, 171, 75); stroke-opacity: 1; fill: rgb(0, 0, 0); fill-opacity: 0; stroke-width: 5px;"/><path data-index="1" fill-rule="evenodd" d="M348.5,161.88L226.75,161.88" clip-path="url('#clipccca0fxy')" style="opacity: 1; stroke: rgb(217, 140, 17); stroke-opacity: 1; fill: rgb(0, 0, 0); fill-opacity: 0; stroke-width: 5px;"/></g></g><g class="infolayer"><g class="g-gtitle"/><g class="g-xtitle"/><g class="g-ytitle"/><g class="annotation" data-index="0" style="opacity: 1;"><g class="annotation-text-g" transform="rotate(0,456.73,100)"><g class="cursor-pointer" transform="translate(443,87)"><rect class="bg" x="0.5" y="0.5" width="26" height="25" style="stroke-width: 1px; stroke: rgb(0, 0, 0); stroke-opacity: 0; fill: rgb(0, 0, 0); fill-opacity: 0;"/><text class="annotation-text" text-anchor="middle" x="13.40625" y="20" style="font-family: 'Open Sans', verdana, arial, sans-serif; font-size: 20px; fill: rgb(255, 255, 255); fill-opacity: 1; white-space: pre;">+2</text></g></g></g><g class="annotation" data-index="1" style="opacity: 1;"><g class="annotation-text-g" transform="rotate(0,240.27,161.88)"><g class="cursor-pointer" transform="translate(229,149)"><rect class="bg" x="0.5" y="0.5" width="21" height="25" style="stroke-width: 1px; stroke: rgb(0, 0, 0); stroke-opacity: 0; fill: rgb(0, 0, 0); fill-opacity: 0;"/><text class="annotation-text" text-anchor="middle" x="10.90625" y="20" style="font-family: 'Open Sans', verdana, arial, sans-serif; font-size: 20px; fill: rgb(255, 255, 255); fill-opacity: 1; white-space: pre;">-2</text></g></g></g></g></svg>